<?xml version="1.0" encoding="UTF-8" standalone="no"?>
<!-- Created with Inkscape (http://www.inkscape.org/) -->

<svg
   xmlns:dc="http://purl.org/dc/elements/1.1/"
   xmlns:cc="http://creativecommons.org/ns#"
   xmlns:rdf="http://www.w3.org/1999/02/22-rdf-syntax-ns#"
   xmlns:svg="http://www.w3.org/2000/svg"
   xmlns="http://www.w3.org/2000/svg"
   xmlns:sodipodi="http://sodipodi.sourceforge.net/DTD/sodipodi-0.dtd"
   xmlns:inkscape="http://www.inkscape.org/namespaces/inkscape"
   width="268.65497"
   height="99.249496"
   id="svg7030"
   version="1.1"
   inkscape:version="0.48.4 r9939"
   sodipodi:docname="New document 14">
  <defs
     id="defs7032" />
  <sodipodi:namedview
     id="base"
     pagecolor="#ffffff"
     bordercolor="#666666"
     borderopacity="1.0"
     inkscape:pageopacity="0.0"
     inkscape:pageshadow="2"
     inkscape:zoom="1"
     inkscape:cx="216.32746"
     inkscape:cy="-66.375273"
     inkscape:document-units="px"
     inkscape:current-layer="layer1"
     showgrid="false"
     fit-margin-top="0"
     fit-margin-left="0"
     fit-margin-right="0"
     fit-margin-bottom="0"
     inkscape:window-width="1920"
     inkscape:window-height="1138"
     inkscape:window-x="-8"
     inkscape:window-y="-8"
     inkscape:window-maximized="1" />
  <metadata
     id="metadata7035">
    <rdf:RDF>
      <cc:Work
         rdf:about="">
        <dc:format>image/svg+xml</dc:format>
        <dc:type
           rdf:resource="http://purl.org/dc/dcmitype/StillImage" />
        <dc:title></dc:title>
      </cc:Work>
    </rdf:RDF>
  </metadata>
  <g
     inkscape:label="Layer 1"
     inkscape:groupmode="layer"
     id="layer1"
     transform="translate(-158.67254,-366.73741)">
    <g
       id="g16522-2-3-9-1-0"
       transform="matrix(1.3098416,0,0,1.3098416,-1424.8783,2614.18)">
      <g
         style="font-size:45.12739944px;font-style:normal;font-variant:normal;font-weight:900;font-stretch:normal;text-align:start;line-height:125%;letter-spacing:0px;word-spacing:0px;writing-mode:lr-tb;text-anchor:start;fill:#ed1b2d;fill-opacity:1;stroke:none;font-family:Sanchez;-inkscape-font-specification:Sanchez Heavy"
         id="text3472-1-0-81-2-4-50-5-29-9-8">
        <path
           d="m 1224.1714,-1654.7195 c 0.2058,0 0.3694,-0.056 0.4907,-0.1692 0.1213,-0.1128 0.1833,-0.2821 0.1862,-0.5077 l 0,-5.4603 c -1e-4,-0.4513 -0.2257,-0.6769 -0.6769,-0.6769 l -3.6553,0 0,-3.4748 4.0163,0 c 3.6374,-0.041 6.5274,-1.0078 8.67,-2.8994 2.1425,-1.8915 3.2387,-4.46 3.2886,-7.7054 -0.052,-3.2632 -1.0991,-5.9765 -3.142,-8.1398 -2.0429,-2.1632 -4.7712,-3.2857 -8.1849,-3.3675 l -15.5236,0 c -0.4512,0 -0.6769,0.2256 -0.6769,0.6769 l 0,5.4603 c 0,0.2257 0.065,0.3949 0.1862,0.5077 0.1212,0.1128 0.2848,0.1692 0.4907,0.1692 l 2.8881,0 0,18.7728 -2.8881,0 c -0.4512,0 -0.6769,0.2256 -0.6769,0.6769 l 0,5.4603 c 0,0.2256 0.065,0.3949 0.1862,0.5077 0.1212,0.1128 0.2848,0.1692 0.4907,0.1692 z m -3.6553,-16.5615 0,-9.0254 3.1137,0 c 1.4629,0.01 2.6211,0.4109 3.4748,1.2128 0.8536,0.802 1.2899,1.9621 1.3087,3.4804 0.031,1.2861 -0.3131,2.3241 -1.0323,3.1138 -0.7192,0.7897 -1.9997,1.1958 -3.8414,1.2184 z"
           style="line-height:125%;letter-spacing:-0.84103835px;fill:#ed1b2d;font-family:Sanchez;-inkscape-font-specification:Sanchez Heavy"
           id="path7060" />
        <path
           d="m 1267.6072,-1654.7195 c 0.2058,0 0.3694,-0.056 0.4907,-0.1692 0.1213,-0.1128 0.1833,-0.2821 0.1862,-0.5077 l 0,-5.4603 c -10e-5,-0.4513 -0.2257,-0.6769 -0.6769,-0.6769 l -3.0687,0 -2.3917,-4.1517 c -0.2501,-0.4268 -0.5058,-0.8029 -0.7671,-1.1282 -0.2614,-0.3252 -0.5171,-0.611 -0.7672,-0.8574 1.5239,-0.8405 2.7066,-1.9799 3.5481,-3.4183 0.8414,-1.4384 1.2682,-3.142 1.2805,-5.1106 -0.052,-3.2388 -1.0991,-5.8543 -3.142,-7.8465 -2.0429,-1.9921 -4.7712,-3.0169 -8.1849,-3.0742 l -15.5236,0 c -0.4513,0 -0.6769,0.2256 -0.6769,0.6769 l 0,5.4603 c 0,0.2257 0.065,0.3949 0.1862,0.5077 0.1212,0.1128 0.2848,0.1692 0.4907,0.1692 l 2.8881,0 0,18.7728 -2.8881,0 c -0.4513,0 -0.6769,0.2256 -0.6769,0.6769 l 0,5.4603 c 0,0.2256 0.065,0.3949 0.1862,0.5077 0.1212,0.1128 0.2848,0.1692 0.4907,0.1692 l 14.5309,0 c 0.2058,0 0.3694,-0.056 0.4907,-0.1692 0.1213,-0.1128 0.1833,-0.2821 0.1862,-0.5077 l 0,-5.4603 c -10e-5,-0.4513 -0.2257,-0.6769 -0.6769,-0.6769 l -3.6553,0 0,-4.5127 2.1209,0 c 0.7785,0.028 1.3764,0.2426 1.7938,0.643 0.4174,0.4006 0.722,0.818 0.9139,1.2523 l 3.0686,6.3178 c 0.4428,0.9589 0.9561,1.7148 1.5399,2.2676 0.5838,0.5528 1.2889,0.8348 2.1153,0.8461 z m -18.141,-17.5994 0,-7.9875 2.7076,0 c 1.6377,-0.01 2.9088,0.3357 3.8132,1.0323 0.9044,0.6967 1.3632,1.7966 1.3764,3.2999 0.01,1.2579 -0.4043,2.183 -1.241,2.7753 -0.8368,0.5923 -2.153,0.8856 -3.9486,0.88 z"
           style="line-height:125%;letter-spacing:-0.84103835px;fill:#ed1b2d;font-family:Sanchez;-inkscape-font-specification:Sanchez Heavy"
           id="path7062" />
        <path
           d="m 1284.5794,-1654.7195 c 0.2058,0 0.3694,-0.056 0.4907,-0.1692 0.1213,-0.1128 0.1833,-0.2821 0.1862,-0.5077 l 0,-5.4603 c -10e-5,-0.4513 -0.2257,-0.6769 -0.6769,-0.6769 l -2.8882,0 0,-18.7728 2.8882,0 c 0.2058,0 0.3694,-0.056 0.4907,-0.1692 0.1213,-0.1128 0.1833,-0.282 0.1862,-0.5077 l 0,-5.4603 c -10e-5,-0.4513 -0.2257,-0.6769 -0.6769,-0.6769 l -13.7637,0 c -0.4513,0 -0.6769,0.2256 -0.6769,0.6769 l 0,5.4603 c 0,0.2257 0.065,0.3949 0.1861,0.5077 0.1213,0.1128 0.2849,0.1692 0.4908,0.1692 l 2.8881,0 0,18.7728 -2.8881,0 c -0.4513,0 -0.6769,0.2256 -0.6769,0.6769 l 0,5.4603 c 0,0.2256 0.065,0.3949 0.1861,0.5077 0.1213,0.1128 0.2849,0.1692 0.4908,0.1692 z"
           style="line-height:125%;letter-spacing:-0.84103835px;fill:#ed1b2d;font-family:Sanchez;-inkscape-font-specification:Sanchez Heavy"
           id="path7064" />
        <path
           d="m 1313.8147,-1667.4452 c -0.3686,-0.2783 -0.6695,-0.2181 -0.9026,0.1805 -0.1435,0.3175 -0.5084,0.8708 -1.0947,1.6596 -0.5864,0.7889 -1.5263,1.5327 -2.8196,2.2313 -1.2934,0.6986 -3.0723,1.0713 -5.3367,1.1181 -2.1529,-0.033 -4.0182,-0.8245 -5.5957,-2.3748 -1.5776,-1.5502 -2.4049,-3.6618 -2.482,-6.3346 0.038,-2.8148 0.7521,-4.9809 2.1435,-6.4983 1.3914,-1.5174 3.2341,-2.2845 5.5281,-2.3015 2.1501,0.077 3.784,0.5886 4.9019,1.5343 1.1178,0.9459 1.68,1.8634 1.6866,2.7528 l 0,0.4512 c 0,0.2257 0.065,0.3949 0.1861,0.5077 0.1213,0.1129 0.2849,0.1693 0.4908,0.1693 l 6.7239,0 c 0.2059,0 0.3694,-0.056 0.4907,-0.1693 0.1213,-0.1128 0.1833,-0.282 0.1862,-0.5077 l 0,-11.417 c 0,-0.4513 -0.2257,-0.6769 -0.6769,-0.6769 l -5.8214,0 c -0.2284,0 -0.4033,0.056 -0.5246,0.1692 -0.1213,0.1128 -0.172,0.2821 -0.1523,0.5077 l 0.1354,2.3917 c -0.6158,-0.8894 -1.5842,-1.6603 -2.905,-2.3128 -1.3209,-0.6524 -3.0903,-0.9946 -5.3081,-1.0266 -2.7084,-0 -5.2489,0.5936 -7.6214,1.7867 -2.3725,1.1931 -4.3012,2.9954 -5.7862,5.4068 -1.4851,2.4116 -2.2505,5.444 -2.2965,9.0973 0.125,5.355 1.7364,9.4691 4.8342,12.3422 3.0978,2.873 6.9317,4.3246 11.5017,4.3547 3.9054,-0.099 6.9551,-0.8282 9.1491,-2.1861 2.1939,-1.358 3.746,-2.7486 4.6564,-4.1718 0.9103,-1.4231 1.3927,-2.2822 1.4474,-2.5772 0.094,-0.2021 0.1316,-0.3845 0.1128,-0.5472 -0.019,-0.1626 -0.1166,-0.3111 -0.2933,-0.4456 z"
           style="line-height:125%;letter-spacing:-0.84103835px;fill:#ed1b2d;font-family:Sanchez;-inkscape-font-specification:Sanchez Heavy"
           id="path7066" />
        <path
           d="m 1346.6344,-1654.7195 c 0.2059,0 0.3695,-0.056 0.4908,-0.1692 0.1212,-0.1128 0.1833,-0.2821 0.1861,-0.5077 l 0,-10.4243 c 0,-0.4512 -0.2256,-0.6769 -0.6769,-0.6769 l -5.5957,0 c -0.4513,0 -0.6769,0.2257 -0.6769,0.6769 l 0,4.2871 -8.6643,0 0,-5.9568 7.0397,0 c 0.2059,0 0.3695,-0.056 0.4908,-0.1692 0.1213,-0.1128 0.1833,-0.282 0.1861,-0.5077 l 0,-5.4603 c 0,-0.4513 -0.2256,-0.6769 -0.6769,-0.6769 l -7.0397,0 0,-6.0019 8.7094,0 0,4.2871 c 0,0.4512 0.2256,0.6769 0.6769,0.6769 l 5.5506,0 c 0.4513,0 0.6769,-0.2257 0.6769,-0.6769 l 0,-10.4243 c -0,-0.2256 -0.065,-0.3949 -0.1861,-0.5077 -0.1213,-0.1128 -0.2849,-0.1692 -0.4908,-0.1692 l -25.8125,0 c -0.4513,0 -0.6769,0.2256 -0.6769,0.6769 l 0,5.4603 c 0,0.2257 0.065,0.3949 0.1861,0.5077 0.1213,0.1128 0.2849,0.1692 0.4908,0.1692 l 2.8881,0 0,18.7728 -2.8881,0 c -0.4513,0 -0.6769,0.2256 -0.6769,0.6769 l 0,5.4603 c 0,0.2256 0.065,0.3949 0.1861,0.5077 0.1213,0.1128 0.2849,0.1692 0.4908,0.1692 z"
           style="line-height:125%;letter-spacing:-0.84103835px;fill:#ed1b2d;font-family:Sanchez;-inkscape-font-specification:Sanchez Heavy"
           id="path7068" />
        <path
           d="m 1375.593,-1667.4452 c -0.3686,-0.2783 -0.6694,-0.2181 -0.9025,0.1805 -0.1435,0.3175 -0.5084,0.8708 -1.0948,1.6596 -0.5864,0.7889 -1.5262,1.5327 -2.8196,2.2313 -1.2934,0.6986 -3.0722,1.0713 -5.3366,1.1181 -2.153,-0.033 -4.0182,-0.8245 -5.5958,-2.3748 -1.5775,-1.5502 -2.4049,-3.6618 -2.4819,-6.3346 0.038,-2.8148 0.7521,-4.9809 2.1435,-6.4983 1.3914,-1.5174 3.2341,-2.2845 5.528,-2.3015 2.1501,0.077 3.7841,0.5886 4.9019,1.5343 1.1178,0.9459 1.68,1.8634 1.6866,2.7528 l 0,0.4512 c 0,0.2257 0.065,0.3949 0.1862,0.5077 0.1212,0.1129 0.2848,0.1693 0.4907,0.1693 l 6.7239,0 c 0.2059,0 0.3695,-0.056 0.4908,-0.1693 0.1212,-0.1128 0.1833,-0.282 0.1861,-0.5077 l 0,-11.417 c 0,-0.4513 -0.2256,-0.6769 -0.6769,-0.6769 l -5.8213,0 c -0.2285,0 -0.4034,0.056 -0.5246,0.1692 -0.1213,0.1128 -0.1721,0.2821 -0.1523,0.5077 l 0.1353,2.3917 c -0.6158,-0.8894 -1.5841,-1.6603 -2.905,-2.3128 -1.3209,-0.6524 -3.0903,-0.9946 -5.308,-1.0266 -2.7085,-0 -5.249,0.5936 -7.6215,1.7867 -2.3725,1.1931 -4.3012,2.9954 -5.7862,5.4068 -1.485,2.4116 -2.2505,5.444 -2.2965,9.0973 0.1251,5.355 1.7365,9.4691 4.8342,12.3422 3.0978,2.873 6.9317,4.3246 11.5017,4.3547 3.9054,-0.099 6.9551,-0.8282 9.1491,-2.1861 2.1939,-1.358 3.746,-2.7486 4.6564,-4.1718 0.9103,-1.4231 1.3928,-2.2822 1.4474,-2.5772 0.094,-0.2021 0.1316,-0.3845 0.1128,-0.5472 -0.019,-0.1626 -0.1166,-0.3111 -0.2933,-0.4456 z"
           style="line-height:125%;letter-spacing:-0.84103835px;fill:#ed1b2d;font-family:Sanchez;-inkscape-font-specification:Sanchez Heavy"
           id="path7070" />
        <path
           d="m 1397.6424,-1654.4036 c 4.7317,-0.044 8.6258,-1.524 11.6822,-4.4393 3.0563,-2.9154 4.6377,-7.0013 4.7439,-12.2576 -0.056,-3.6533 -0.8869,-6.6857 -2.4936,-9.0973 -1.6068,-2.4114 -3.6548,-4.2137 -6.144,-5.4068 -2.4892,-1.1931 -5.0854,-1.7886 -7.7885,-1.7867 -2.7032,-0 -5.2994,0.5936 -7.7886,1.7867 -2.4892,1.1931 -4.5372,2.9954 -6.1439,5.4068 -1.6068,2.4116 -2.438,5.444 -2.4937,9.0973 0.1062,4.9799 1.6876,8.9868 4.744,12.0206 3.0564,3.0339 6.9504,4.5926 11.6822,4.6763 z m 0,-7.4459 c -2.3194,-0.061 -4.1903,-0.943 -5.6127,-2.6456 -1.4224,-1.7026 -2.1538,-3.8592 -2.1943,-6.47 0.044,-2.812 0.7794,-5.0401 2.2056,-6.6844 1.4262,-1.6443 3.2783,-2.4848 5.5562,-2.5215 2.3015,0.034 4.1743,0.8687 5.6183,2.5045 1.4441,1.6359 2.1887,3.8697 2.2338,6.7014 -0.04,2.6108 -0.7719,4.7674 -2.1943,6.47 -1.4224,1.7026 -3.2933,2.5845 -5.6126,2.6456 z"
           style="line-height:125%;letter-spacing:-0.84103835px;fill:#ed1b2d;font-family:Sanchez;-inkscape-font-specification:Sanchez Heavy"
           id="path7072" />
      </g>
      <path
         inkscape:connector-curvature="0"
         id="rect16437-4-8-94-4-8"
         d="m 1276.8438,-1715.8125 c -1.6621,0 -3,1.338 -3,3 l 0,17.5625 c 0,1.662 1.3379,3 3,3 l 1.7812,0 c 1.662,0 3,-1.338 3,-3 l 0,-17.5625 c 0,-1.662 -1.338,-3 -3,-3 l -1.7812,0 z m -23,5.4063 c -0.7669,0 -1.5374,0.2873 -2.125,0.875 l -1.2813,1.25 c -1.1752,1.1752 -1.1752,3.0747 0,4.25 l 12.4375,12.4062 c 1.1752,1.1752 3.0748,1.1752 4.25,0 l 1.25,-1.25 c 1.1752,-1.1752 1.1752,-3.0748 0,-4.25 l -12.4375,-12.4062 c -0.5876,-0.5877 -1.3269,-0.875 -2.0937,-0.875 z m 47.8124,0 c -0.7668,0 -1.5373,0.2873 -2.125,0.875 l -12.4062,12.4062 c -1.1752,1.1752 -1.1752,3.0748 0,4.25 l 1.25,1.25 c 1.1752,1.1752 3.0748,1.1752 4.25,0 l 12.4062,-12.4062 c 1.1753,-1.1753 1.1753,-3.0748 0,-4.25 l -1.25,-1.25 c -0.5876,-0.5877 -1.3581,-0.875 -2.125,-0.875 z"
         style="fill:#4da6e2;fill-opacity:1;stroke:none" />
      <g
         transform="matrix(0.83944123,0,0,0.83944123,5095.6373,2023.1764)"
         style="font-size:16.25px;font-style:normal;font-weight:normal;line-height:125%;letter-spacing:0px;word-spacing:0px;fill:#000000;fill-opacity:1;stroke:none;font-family:sans-serif"
         id="flowRoot6068-1-22-7-0-5-5-3">
        <path
           d="m -4580.3374,-4366.225 0,-8.6625 5.4749,0 0,1.3375 -3.8998,0 0,2.2125 3.4622,0 0,1.3374 -3.4622,0 0,3.7751 z"
           style="font-size:12.5px;font-variant:normal;font-weight:bold;font-stretch:normal;text-align:start;letter-spacing:-0.37362623px;writing-mode:lr-tb;text-anchor:start;font-family:Ubuntu Light;-inkscape-font-specification:'Ubuntu Light, Light'"
           id="path7075" />
        <path
           d="m -4567.989,-4369.5 c 0,0.5165 -0.075,0.9873 -0.2249,1.4124 -0.1499,0.4251 -0.3624,0.7876 -0.6374,1.0876 -0.2751,0.3 -0.6063,0.5333 -0.9938,0.7 -0.3874,0.1667 -0.8145,0.25 -1.2811,0.25 -0.4667,0 -0.8917,-0.083 -1.2751,-0.25 -0.3834,-0.1667 -0.7126,-0.4 -0.9876,-0.7 -0.275,-0.3 -0.4896,-0.6625 -0.6437,-1.0876 -0.1542,-0.4251 -0.2312,-0.8959 -0.2312,-1.4124 0,-0.5167 0.077,-0.9855 0.2312,-1.4063 0.1541,-0.4207 0.3707,-0.7811 0.65,-1.0812 0.2792,-0.3001 0.6105,-0.5314 0.9937,-0.6939 0.3833,-0.1625 0.8041,-0.2438 1.2627,-0.2438 0.4582,0 0.8811,0.081 1.2686,0.2438 0.3874,0.1625 0.7186,0.3938 0.9937,0.6939 0.275,0.3001 0.4896,0.6605 0.6437,1.0812 0.1541,0.4208 0.2312,0.8896 0.2312,1.4063 z m -1.5499,0 c 0,-0.65 -0.1396,-1.1646 -0.4187,-1.5438 -0.2791,-0.3791 -0.6686,-0.5687 -1.1686,-0.5687 -0.5,0 -0.8896,0.1896 -1.1688,0.5687 -0.2793,0.3792 -0.4189,0.8938 -0.4189,1.5438 0,0.6582 0.1396,1.179 0.4189,1.5623 0.2792,0.3834 0.6688,0.5751 1.1688,0.5751 0.5,0 0.8895,-0.1917 1.1686,-0.5751 0.2791,-0.3833 0.4187,-0.9041 0.4187,-1.5623 z"
           style="font-size:12.5px;font-variant:normal;font-weight:bold;font-stretch:normal;text-align:start;letter-spacing:-0.37362623px;writing-mode:lr-tb;text-anchor:start;font-family:Ubuntu Light;-inkscape-font-specification:'Ubuntu Light, Light'"
           id="path7077" />
        <path
           d="m -4560.8919,-4369.5 c 0,0.5165 -0.075,0.9873 -0.2249,1.4124 -0.1499,0.4251 -0.3624,0.7876 -0.6374,1.0876 -0.2751,0.3 -0.6063,0.5333 -0.9938,0.7 -0.3874,0.1667 -0.8145,0.25 -1.2811,0.25 -0.4667,0 -0.8917,-0.083 -1.2751,-0.25 -0.3834,-0.1667 -0.7126,-0.4 -0.9876,-0.7 -0.2751,-0.3 -0.4896,-0.6625 -0.6438,-1.0876 -0.1541,-0.4251 -0.2311,-0.8959 -0.2311,-1.4124 0,-0.5167 0.077,-0.9855 0.2311,-1.4063 0.1542,-0.4207 0.3708,-0.7811 0.6501,-1.0812 0.2792,-0.3001 0.6104,-0.5314 0.9937,-0.6939 0.3832,-0.1625 0.8041,-0.2438 1.2627,-0.2438 0.4582,0 0.8811,0.081 1.2685,0.2438 0.3875,0.1625 0.7187,0.3938 0.9938,0.6939 0.275,0.3001 0.4896,0.6605 0.6437,1.0812 0.1541,0.4208 0.2312,0.8896 0.2312,1.4063 z m -1.5499,0 c -1e-4,-0.65 -0.1396,-1.1646 -0.4187,-1.5438 -0.2791,-0.3791 -0.6687,-0.5687 -1.1686,-0.5687 -0.5,0 -0.8896,0.1896 -1.1689,0.5687 -0.2792,0.3792 -0.4188,0.8938 -0.4188,1.5438 0,0.6582 0.1396,1.179 0.4188,1.5623 0.2793,0.3834 0.6689,0.5751 1.1689,0.5751 0.4999,0 0.8895,-0.1917 1.1686,-0.5751 0.2791,-0.3833 0.4186,-0.9041 0.4187,-1.5623 z"
           style="font-size:12.5px;font-variant:normal;font-weight:bold;font-stretch:normal;text-align:start;letter-spacing:-0.37362623px;writing-mode:lr-tb;text-anchor:start;font-family:Ubuntu Light;-inkscape-font-specification:'Ubuntu Light, Light'"
           id="path7079" />
        <path
           d="m -4558.5197,-4369.5126 c 0,0.6666 0.1583,1.1895 0.4749,1.5686 0.3166,0.3792 0.7541,0.5688 1.3126,0.5688 0.2416,0 0.4479,-0.01 0.6188,-0.031 0.1709,-0.021 0.3105,-0.044 0.4188,-0.069 l 0,-3.7499 c -0.1335,-0.092 -0.3106,-0.1772 -0.5314,-0.2563 -0.2207,-0.079 -0.4561,-0.1187 -0.7061,-0.1187 -0.55,0 -0.9522,0.1875 -1.2064,0.5625 -0.2542,0.375 -0.3812,0.8833 -0.3812,1.5249 z m 4.3376,3.0877 c -0.3,0.091 -0.6772,0.1748 -1.1314,0.2498 -0.4542,0.075 -0.9313,0.1126 -1.4313,0.1126 -0.5165,0 -0.9789,-0.079 -1.3874,-0.2375 -0.4084,-0.1583 -0.7564,-0.3854 -1.0439,-0.6813 -0.2875,-0.2959 -0.5083,-0.6542 -0.6624,-1.075 -0.1541,-0.4208 -0.2312,-0.8937 -0.2312,-1.4189 0,-0.5165 0.065,-0.9852 0.1938,-1.4061 0.1292,-0.4209 0.3188,-0.7813 0.5688,-1.0812 0.25,-0.3 0.5541,-0.5312 0.9125,-0.6937 0.3583,-0.1625 0.7708,-0.2438 1.2375,-0.2438 0.3166,0 0.5958,0.037 0.8375,0.1125 0.2417,0.075 0.45,0.1583 0.625,0.2499 l 0,-3.1376 1.5125,-0.2499 z"
           style="font-size:12.5px;font-variant:normal;font-weight:bold;font-stretch:normal;text-align:start;letter-spacing:-0.37362623px;writing-mode:lr-tb;text-anchor:start;font-family:Ubuntu Light;-inkscape-font-specification:'Ubuntu Light, Light'"
           id="path7081" />
        <path
           d="m -4547.4403,-4375.9251 c 0.3499,0 0.6582,0.031 0.9249,0.094 0.2666,0.063 0.4666,0.1188 0.5998,0.1686 l -0.2872,1.2501 c -0.1417,-0.067 -0.3063,-0.1208 -0.4938,-0.1625 -0.1876,-0.042 -0.3897,-0.063 -0.6064,-0.063 -0.2416,0 -0.4457,0.035 -0.6124,0.1062 -0.1667,0.071 -0.3,0.1688 -0.4,0.2938 -0.1,0.125 -0.1708,0.2771 -0.2125,0.4562 -0.042,0.1792 -0.062,0.3729 -0.062,0.5812 l 0,0.4375 2.375,0 0,1.2627 -2.375,0 0,5.275 -1.5125,0 0,-7 c -1e-4,-0.8418 0.2208,-1.5022 0.6626,-1.9814 0.4417,-0.4791 1.1084,-0.7187 2,-0.7187 z"
           style="font-size:12.5px;font-variant:normal;font-weight:bold;font-stretch:normal;text-align:start;letter-spacing:-0.37362623px;writing-mode:lr-tb;text-anchor:start;font-family:Ubuntu Light;-inkscape-font-specification:'Ubuntu Light, Light'"
           id="path7083" />
        <path
           d="m -4541.7466,-4371.4001 c -0.1252,-0.042 -0.2981,-0.085 -0.5188,-0.1312 -0.2208,-0.046 -0.477,-0.069 -0.7687,-0.069 -0.1666,0 -0.3436,0.017 -0.5312,0.05 -0.1876,0.033 -0.3188,0.062 -0.3939,0.087 l 0,5.2376 -1.5125,0 0,-6.2249 c 0.2917,-0.1083 0.6563,-0.2104 1.0939,-0.3063 0.4375,-0.096 0.9229,-0.1438 1.4562,-0.1438 0.1,0 0.2166,0.01 0.35,0.019 0.1334,0.012 0.2667,0.029 0.4,0.05 0.1333,0.021 0.2624,0.046 0.3874,0.075 0.125,0.029 0.225,0.056 0.3,0.082 z"
           style="font-size:12.5px;font-variant:normal;font-weight:bold;font-stretch:normal;text-align:start;letter-spacing:-0.37362623px;writing-mode:lr-tb;text-anchor:start;font-family:Ubuntu Light;-inkscape-font-specification:'Ubuntu Light, Light'"
           id="path7085" />
        <path
           d="m -4541.1784,-4369.4626 c 0,-0.575 0.085,-1.0792 0.2561,-1.5125 0.1708,-0.4334 0.3979,-0.7938 0.6813,-1.0813 0.2835,-0.2875 0.6085,-0.5042 0.9751,-0.65 0.3666,-0.1459 0.7415,-0.2188 1.1247,-0.2188 0.9001,0 1.6021,0.2792 2.1063,0.8375 0.5042,0.5584 0.7563,1.3917 0.7563,2.5 0,0.083 -0,0.1772 -0.01,0.2813 -0,0.1042 -0.01,0.198 -0.019,0.2814 l -4.3125,0 c 0.042,0.5249 0.2271,0.9311 0.5562,1.2186 0.329,0.2875 0.8061,0.4312 1.4312,0.4312 0.3668,0 0.7022,-0.033 1.0064,-0.1 0.3041,-0.067 0.5437,-0.1375 0.7186,-0.2125 l 0.1999,1.2375 c -0.083,0.042 -0.1976,0.085 -0.3435,0.1312 -0.1458,0.046 -0.3125,0.087 -0.5001,0.1249 -0.1875,0.038 -0.3897,0.069 -0.6063,0.094 -0.2167,0.025 -0.4376,0.038 -0.6626,0.038 -0.575,0 -1.075,-0.086 -1.5,-0.2564 -0.4249,-0.1709 -0.7749,-0.4084 -1.05,-0.7126 -0.275,-0.3041 -0.4792,-0.6625 -0.6124,-1.075 -0.1333,-0.4125 -0.1999,-0.8645 -0.1999,-1.3561 z m 4.3873,-0.6748 c 0,-0.2085 -0.029,-0.4065 -0.087,-0.5939 -0.058,-0.1875 -0.1436,-0.3499 -0.2561,-0.4874 -0.1126,-0.1374 -0.2501,-0.2458 -0.4126,-0.325 -0.1625,-0.079 -0.3563,-0.1188 -0.5814,-0.1188 -0.2332,0 -0.4373,0.044 -0.6124,0.1312 -0.1751,0.087 -0.3231,0.2021 -0.4439,0.3437 -0.1208,0.1417 -0.2145,0.3042 -0.2811,0.4875 -0.067,0.1834 -0.1124,0.371 -0.1373,0.5627 z"
           style="font-size:12.5px;font-variant:normal;font-weight:bold;font-stretch:normal;text-align:start;letter-spacing:-0.37362623px;writing-mode:lr-tb;text-anchor:start;font-family:Ubuntu Light;-inkscape-font-specification:'Ubuntu Light, Light'"
           id="path7087" />
        <path
           d="m -4532.4231,-4367.3126 c 0.4,0 0.6917,-0.048 0.8749,-0.1436 0.1832,-0.096 0.2749,-0.2604 0.2749,-0.4939 0,-0.2166 -0.098,-0.3958 -0.2938,-0.5374 -0.1958,-0.1417 -0.5186,-0.2958 -0.9685,-0.4624 -0.2752,-0.1002 -0.5273,-0.2065 -0.7565,-0.3189 -0.2291,-0.1124 -0.427,-0.2436 -0.5935,-0.3937 -0.1666,-0.15 -0.2978,-0.3313 -0.3937,-0.5438 -0.096,-0.2124 -0.1438,-0.4729 -0.1438,-0.7814 0,-0.5999 0.2208,-1.0728 0.6624,-1.4187 0.4416,-0.3458 1.0416,-0.5188 1.7999,-0.5188 0.3833,0 0.75,0.035 1.1,0.1063 0.3501,0.071 0.6126,0.1396 0.7876,0.2065 l -0.2751,1.2249 c -0.1666,-0.075 -0.379,-0.1438 -0.6374,-0.2064 -0.2584,-0.062 -0.5584,-0.094 -0.8999,-0.094 -0.3085,0 -0.5585,0.052 -0.7502,0.1564 -0.1916,0.1043 -0.2874,0.2648 -0.2874,0.4814 0,0.1084 0.019,0.2042 0.056,0.2875 0.038,0.083 0.1021,0.1603 0.1938,0.2311 0.092,0.071 0.2124,0.1417 0.3624,0.2125 0.1499,0.071 0.3332,0.1438 0.5498,0.2188 0.3584,0.1332 0.6626,0.2645 0.9127,0.3937 0.2501,0.1292 0.4564,0.275 0.6189,0.4375 0.1625,0.1625 0.2812,0.3479 0.3561,0.5562 0.075,0.2083 0.1124,0.4583 0.1124,0.75 0,0.6251 -0.2313,1.098 -0.6937,1.4188 -0.4625,0.3209 -1.1229,0.4813 -1.9812,0.4813 -0.575,0 -1.0375,-0.048 -1.3876,-0.1439 -0.35,-0.096 -0.5959,-0.1729 -0.7375,-0.2311 l 0.2628,-1.2627 c 0.2248,0.092 0.4935,0.1794 0.806,0.2627 0.3126,0.083 0.6689,0.1249 1.0689,0.1249 z"
           style="font-size:12.5px;font-variant:normal;font-weight:bold;font-stretch:normal;text-align:start;letter-spacing:-0.37362623px;writing-mode:lr-tb;text-anchor:start;font-family:Ubuntu Light;-inkscape-font-specification:'Ubuntu Light, Light'"
           id="path7089" />
        <path
           d="m -4528.7215,-4366.225 0,-9.4502 1.5125,-0.2499 0,3.2376 c 0.1666,-0.058 0.3603,-0.1082 0.5812,-0.1499 0.2209,-0.042 0.4397,-0.063 0.6563,-0.063 0.5249,0 0.9603,0.073 1.3062,0.2188 0.3459,0.1458 0.623,0.35 0.8314,0.6124 0.2084,0.2625 0.3564,0.5771 0.4438,0.9438 0.087,0.3667 0.1313,0.775 0.1313,1.2249 l 0,3.6751 -1.5126,0 0,-3.4375 c 0,-0.3499 -0.023,-0.6478 -0.069,-0.8938 -0.046,-0.2459 -0.1209,-0.4459 -0.2251,-0.6 -0.1041,-0.1541 -0.2437,-0.2666 -0.4186,-0.3374 -0.175,-0.071 -0.3917,-0.1063 -0.6501,-0.1063 -0.1999,0 -0.404,0.021 -0.6124,0.062 -0.2084,0.042 -0.3626,0.079 -0.4626,0.1127 l 0,5.1999 z"
           style="font-size:12.5px;font-variant:normal;font-weight:bold;font-stretch:normal;text-align:start;letter-spacing:-0.37362623px;writing-mode:lr-tb;text-anchor:start;font-family:Ubuntu Light;-inkscape-font-specification:'Ubuntu Light, Light'"
           id="path7091" />
        <path
           d="m -4516.9882,-4367.2874 c 0.4667,0 0.8209,-0.025 1.0628,-0.075 l 0,-1.675 c -0.083,-0.025 -0.2043,-0.05 -0.3626,-0.075 -0.1583,-0.025 -0.3333,-0.038 -0.5251,-0.038 -0.1666,0 -0.3353,0.013 -0.5062,0.038 -0.1709,0.025 -0.3251,0.071 -0.4625,0.1375 -0.1375,0.067 -0.2479,0.1604 -0.3311,0.2812 -0.083,0.1208 -0.125,0.2729 -0.125,0.4562 0,0.3583 0.1125,0.6063 0.3374,0.7439 0.225,0.1376 0.5291,0.2064 0.9123,0.2064 z m -0.1247,-5.6378 c 0.4999,0 0.9208,0.062 1.2624,0.1875 0.3417,0.125 0.6146,0.3 0.8187,0.5251 0.2041,0.2251 0.3499,0.498 0.4375,0.8188 0.088,0.3208 0.1314,0.6729 0.1314,1.0561 l 0,3.9627 c -0.2334,0.05 -0.5856,0.1102 -1.0564,0.181 -0.4709,0.071 -1.0021,0.1063 -1.5936,0.1063 -0.3917,0 -0.75,-0.038 -1.075,-0.1124 -0.325,-0.075 -0.6021,-0.1957 -0.8312,-0.3624 -0.2292,-0.1667 -0.4083,-0.3833 -0.5375,-0.65 -0.1292,-0.2666 -0.1938,-0.5958 -0.1938,-0.9874 0,-0.3751 0.073,-0.6919 0.2188,-0.9503 0.1458,-0.2583 0.3437,-0.4687 0.5937,-0.6311 0.25,-0.1624 0.5395,-0.279 0.8686,-0.35 0.3291,-0.071 0.6728,-0.1064 1.0311,-0.1064 0.1669,0 0.342,0.01 0.5253,0.031 0.1834,0.021 0.3792,0.056 0.5875,0.1064 l 0,-0.2499 c 0,-0.1752 -0.021,-0.342 -0.063,-0.5003 -0.042,-0.1583 -0.1146,-0.2978 -0.2187,-0.4186 -0.1042,-0.1208 -0.2417,-0.2145 -0.4126,-0.2812 -0.1709,-0.067 -0.3854,-0.1 -0.6435,-0.1 -0.3502,0 -0.6711,0.025 -0.9627,0.075 -0.2916,0.05 -0.529,0.1083 -0.7124,0.1749 l -0.1877,-1.2249 c 0.1918,-0.067 0.471,-0.1333 0.8376,-0.2 0.3665,-0.067 0.7583,-0.1002 1.1751,-0.1002 z"
           style="font-size:12.5px;font-variant:normal;font-weight:bold;font-stretch:normal;text-align:start;letter-spacing:-0.37362623px;writing-mode:lr-tb;text-anchor:start;font-family:Ubuntu Light;-inkscape-font-specification:'Ubuntu Light, Light'"
           id="path7093" />
        <path
           d="m -4511.359,-4367.3126 c 0.4,0 0.6917,-0.048 0.8749,-0.1436 0.1832,-0.096 0.2748,-0.2604 0.2748,-0.4939 0,-0.2166 -0.098,-0.3958 -0.2937,-0.5374 -0.1958,-0.1417 -0.5187,-0.2958 -0.9685,-0.4624 -0.2752,-0.1002 -0.5274,-0.2065 -0.7565,-0.3189 -0.2291,-0.1124 -0.427,-0.2436 -0.5936,-0.3937 -0.1665,-0.15 -0.2978,-0.3313 -0.3936,-0.5438 -0.096,-0.2124 -0.1438,-0.4729 -0.1438,-0.7814 0,-0.5999 0.2208,-1.0728 0.6624,-1.4187 0.4416,-0.3458 1.0416,-0.5188 1.7999,-0.5188 0.3833,0 0.7499,0.035 1.1,0.1063 0.3501,0.071 0.6126,0.1396 0.7876,0.2065 l -0.2751,1.2249 c -0.1666,-0.075 -0.379,-0.1438 -0.6374,-0.2064 -0.2584,-0.062 -0.5584,-0.094 -0.8999,-0.094 -0.3085,0 -0.5585,0.052 -0.7502,0.1564 -0.1916,0.1043 -0.2874,0.2648 -0.2874,0.4814 0,0.1084 0.019,0.2042 0.056,0.2875 0.038,0.083 0.1021,0.1603 0.1937,0.2311 0.092,0.071 0.2125,0.1417 0.3624,0.2125 0.15,0.071 0.3333,0.1438 0.5499,0.2188 0.3584,0.1332 0.6626,0.2645 0.9127,0.3937 0.2501,0.1292 0.4564,0.275 0.6189,0.4375 0.1625,0.1625 0.2812,0.3479 0.3561,0.5562 0.075,0.2083 0.1124,0.4583 0.1124,0.75 0,0.6251 -0.2313,1.098 -0.6937,1.4188 -0.4625,0.3209 -1.1229,0.4813 -1.9812,0.4813 -0.575,0 -1.0375,-0.048 -1.3876,-0.1439 -0.35,-0.096 -0.5959,-0.1729 -0.7376,-0.2311 l 0.2629,-1.2627 c 0.2248,0.092 0.4935,0.1794 0.806,0.2627 0.3126,0.083 0.6689,0.1249 1.0689,0.1249 z"
           style="font-size:12.5px;font-variant:normal;font-weight:bold;font-stretch:normal;text-align:start;letter-spacing:-0.37362623px;writing-mode:lr-tb;text-anchor:start;font-family:Ubuntu Light;-inkscape-font-specification:'Ubuntu Light, Light'"
           id="path7095" />
        <path
           d="m -4505.2005,-4374.4877 1.5121,-0.2498 0,1.9748 2.3251,0 0,1.2627 -2.3251,0 0,2.6623 c 0,0.5251 0.083,0.9002 0.2501,1.1251 0.1667,0.225 0.4501,0.3374 0.8501,0.3374 0.2749,0 0.5187,-0.029 0.7313,-0.087 0.2126,-0.058 0.3813,-0.1124 0.5062,-0.1625 l 0.2498,1.2001 c -0.1749,0.075 -0.4041,0.152 -0.6874,0.2311 -0.2833,0.079 -0.6165,0.1187 -0.9998,0.1187 -0.4667,0 -0.8563,-0.062 -1.1688,-0.1875 -0.3126,-0.125 -0.5605,-0.3063 -0.7439,-0.5438 -0.1833,-0.2375 -0.3125,-0.525 -0.3874,-0.8625 -0.075,-0.3375 -0.1123,-0.7229 -0.1123,-1.1562 z"
           style="font-size:12.5px;font-variant:normal;font-weight:bold;font-stretch:normal;text-align:start;letter-spacing:-0.37362623px;writing-mode:lr-tb;text-anchor:start;font-family:Ubuntu Light;-inkscape-font-specification:'Ubuntu Light, Light'"
           id="path7097" />
        <path
           d="m -4500.2748,-4366.225 0,-9.4502 1.5126,-0.2499 0,3.2376 c 0.1665,-0.058 0.3603,-0.1082 0.5811,-0.1499 0.2209,-0.042 0.4397,-0.063 0.6564,-0.063 0.5249,0 0.9602,0.073 1.3061,0.2188 0.3459,0.1458 0.623,0.35 0.8314,0.6124 0.2084,0.2625 0.3564,0.5771 0.4439,0.9438 0.087,0.3667 0.1312,0.775 0.1312,1.2249 l 0,3.6751 -1.5125,0 0,-3.4375 c 0,-0.3499 -0.023,-0.6478 -0.069,-0.8938 -0.046,-0.2459 -0.1209,-0.4459 -0.2251,-0.6 -0.1041,-0.1541 -0.2437,-0.2666 -0.4186,-0.3374 -0.175,-0.071 -0.3917,-0.1063 -0.65,-0.1063 -0.1999,0 -0.4041,0.021 -0.6125,0.062 -0.2084,0.042 -0.3626,0.079 -0.4625,0.1127 l 0,5.1999 z"
           style="font-size:12.5px;font-variant:normal;font-weight:bold;font-stretch:normal;text-align:start;letter-spacing:-0.37362623px;writing-mode:lr-tb;text-anchor:start;font-family:Ubuntu Light;-inkscape-font-specification:'Ubuntu Light, Light'"
           id="path7099" />
        <path
           d="m -4493.7354,-4369.4626 c 0,-0.575 0.085,-1.0792 0.2562,-1.5125 0.1707,-0.4334 0.3978,-0.7938 0.6813,-1.0813 0.2834,-0.2875 0.6084,-0.5042 0.975,-0.65 0.3666,-0.1459 0.7415,-0.2188 1.1248,-0.2188 0.9,0 1.6021,0.2792 2.1063,0.8375 0.5041,0.5584 0.7562,1.3917 0.7562,2.5 0,0.083 -0,0.1772 -0.01,0.2813 -0,0.1042 -0.01,0.198 -0.019,0.2814 l -4.3125,0 c 0.042,0.5249 0.2271,0.9311 0.5562,1.2186 0.3291,0.2875 0.8062,0.4312 1.4313,0.4312 0.3667,0 0.7021,-0.033 1.0063,-0.1 0.3041,-0.067 0.5437,-0.1375 0.7187,-0.2125 l 0.1999,1.2375 c -0.083,0.042 -0.1977,0.085 -0.3435,0.1312 -0.1459,0.046 -0.3126,0.087 -0.5002,0.1249 -0.1875,0.038 -0.3896,0.069 -0.6063,0.094 -0.2167,0.025 -0.4376,0.038 -0.6626,0.038 -0.575,0 -1.075,-0.086 -1.5,-0.2564 -0.4249,-0.1709 -0.7749,-0.4084 -1.0499,-0.7126 -0.2751,-0.3041 -0.4792,-0.6625 -0.6125,-1.075 -0.1333,-0.4125 -0.1999,-0.8645 -0.1999,-1.3561 z m 4.3873,-0.6748 c 0,-0.2085 -0.029,-0.4065 -0.087,-0.5939 -0.058,-0.1875 -0.1436,-0.3499 -0.2561,-0.4874 -0.1126,-0.1374 -0.2501,-0.2458 -0.4126,-0.325 -0.1625,-0.079 -0.3563,-0.1188 -0.5813,-0.1188 -0.2332,0 -0.4374,0.044 -0.6125,0.1312 -0.1751,0.087 -0.323,0.2021 -0.4438,0.3437 -0.1208,0.1417 -0.2145,0.3042 -0.2812,0.4875 -0.067,0.1834 -0.1124,0.371 -0.1373,0.5627 z"
           style="font-size:12.5px;font-variant:normal;font-weight:bold;font-stretch:normal;text-align:start;letter-spacing:-0.37362623px;writing-mode:lr-tb;text-anchor:start;font-family:Ubuntu Light;-inkscape-font-specification:'Ubuntu Light, Light'"
           id="path7101" />
        <path
           d="m -4480.361,-4369.6625 c 0,-0.6833 -0.085,-1.1771 -0.2562,-1.4812 -0.1707,-0.3042 -0.4895,-0.4563 -0.9561,-0.4563 -0.1669,0 -0.3503,0.013 -0.5503,0.037 -0.2,0.025 -0.35,0.046 -0.4499,0.063 l 0,5.275 -1.5126,0 0,-6.3252 c 0.2917,-0.083 0.673,-0.1622 1.1439,-0.2373 0.4708,-0.075 0.9687,-0.1125 1.4936,-0.1125 0.4501,0 0.819,0.058 1.1065,0.1749 0.2875,0.1166 0.527,0.2708 0.7185,0.4625 0.092,-0.067 0.2085,-0.1374 0.3502,-0.2124 0.1416,-0.075 0.2999,-0.1438 0.4749,-0.2062 0.1749,-0.062 0.3603,-0.1145 0.5562,-0.1562 0.1958,-0.042 0.3938,-0.063 0.5939,-0.063 0.5084,0 0.9271,0.073 1.2562,0.2188 0.3291,0.1458 0.5874,0.35 0.775,0.6124 0.1875,0.2625 0.3167,0.5792 0.3875,0.9501 0.071,0.3709 0.1063,0.7771 0.1063,1.2186 l 0,3.6751 -1.5126,0 0,-3.4375 c 0,-0.6833 -0.083,-1.1771 -0.25,-1.4812 -0.1667,-0.3042 -0.4876,-0.4563 -0.9627,-0.4563 -0.2416,0 -0.4707,0.04 -0.6874,0.1187 -0.2166,0.079 -0.3792,0.1561 -0.4875,0.2312 0.067,0.2082 0.1125,0.429 0.1375,0.6624 0.025,0.2333 0.038,0.4834 0.038,0.7501 l 0,3.6126 -1.5125,0 z"
           style="font-size:12.5px;font-variant:normal;font-weight:bold;font-stretch:normal;text-align:start;letter-spacing:-0.37362623px;writing-mode:lr-tb;text-anchor:start;font-family:Ubuntu Light;-inkscape-font-specification:'Ubuntu Light, Light'"
           id="path7103" />
        <path
           d="m -4467.7319,-4369.5 c 0,0.5165 -0.075,0.9873 -0.2248,1.4124 -0.15,0.4251 -0.3624,0.7876 -0.6375,1.0876 -0.275,0.3 -0.6063,0.5333 -0.9937,0.7 -0.3875,0.1667 -0.8145,0.25 -1.2812,0.25 -0.4666,0 -0.8917,-0.083 -1.275,-0.25 -0.3834,-0.1667 -0.7126,-0.4 -0.9877,-0.7 -0.275,-0.3 -0.4896,-0.6625 -0.6437,-1.0876 -0.1541,-0.4251 -0.2312,-0.8959 -0.2312,-1.4124 0,-0.5167 0.077,-0.9855 0.2312,-1.4063 0.1541,-0.4207 0.3708,-0.7811 0.65,-1.0812 0.2793,-0.3001 0.6105,-0.5314 0.9938,-0.6939 0.3832,-0.1625 0.8041,-0.2438 1.2626,-0.2438 0.4583,0 0.8812,0.081 1.2686,0.2438 0.3874,0.1625 0.7187,0.3938 0.9937,0.6939 0.2751,0.3001 0.4896,0.6605 0.6438,1.0812 0.1541,0.4208 0.2311,0.8896 0.2311,1.4063 z m -1.5499,0 c 0,-0.65 -0.1395,-1.1646 -0.4186,-1.5438 -0.2792,-0.3791 -0.6687,-0.5687 -1.1687,-0.5687 -0.5,0 -0.8896,0.1896 -1.1688,0.5687 -0.2792,0.3792 -0.4189,0.8938 -0.4188,1.5438 -1e-4,0.6582 0.1396,1.179 0.4188,1.5623 0.2792,0.3834 0.6688,0.5751 1.1688,0.5751 0.5,0 0.8895,-0.1917 1.1687,-0.5751 0.2791,-0.3833 0.4186,-0.9041 0.4186,-1.5623 z"
           style="font-size:12.5px;font-variant:normal;font-weight:bold;font-stretch:normal;text-align:start;letter-spacing:-0.37362623px;writing-mode:lr-tb;text-anchor:start;font-family:Ubuntu Light;-inkscape-font-specification:'Ubuntu Light, Light'"
           id="path7105" />
        <path
           d="m -4462.8221,-4371.4001 c -0.1252,-0.042 -0.2981,-0.085 -0.5188,-0.1312 -0.2208,-0.046 -0.477,-0.069 -0.7687,-0.069 -0.1666,0 -0.3436,0.017 -0.5312,0.05 -0.1876,0.033 -0.3188,0.062 -0.3939,0.087 l 0,5.2376 -1.5125,0 0,-6.2249 c 0.2917,-0.1083 0.6563,-0.2104 1.0939,-0.3063 0.4375,-0.096 0.9229,-0.1438 1.4562,-0.1438 0.1,0 0.2166,0.01 0.35,0.019 0.1334,0.012 0.2667,0.029 0.4,0.05 0.1333,0.021 0.2624,0.046 0.3874,0.075 0.125,0.029 0.225,0.056 0.3,0.082 z"
           style="font-size:12.5px;font-variant:normal;font-weight:bold;font-stretch:normal;text-align:start;letter-spacing:-0.37362623px;writing-mode:lr-tb;text-anchor:start;font-family:Ubuntu Light;-inkscape-font-specification:'Ubuntu Light, Light'"
           id="path7107" />
        <path
           d="m -4461.8915,-4372.5502 c 0.2917,-0.083 0.6709,-0.1622 1.1375,-0.2373 0.4667,-0.075 0.9833,-0.1125 1.5499,-0.1125 0.5333,0 0.9791,0.073 1.3375,0.2188 0.3583,0.1458 0.6438,0.35 0.8564,0.6124 0.2126,0.2625 0.3626,0.5792 0.4501,0.9501 0.087,0.3709 0.1312,0.7771 0.1312,1.2186 l 0,3.6751 -1.5125,0 0,-3.4375 c 0,-0.3499 -0.023,-0.6478 -0.069,-0.8938 -0.046,-0.2459 -0.1209,-0.4459 -0.225,-0.6 -0.1042,-0.1541 -0.2458,-0.2666 -0.425,-0.3374 -0.1791,-0.071 -0.3979,-0.1063 -0.6563,-0.1063 -0.1915,0 -0.3915,0.013 -0.5999,0.037 -0.2084,0.025 -0.3625,0.046 -0.4625,0.063 l 0,5.275 -1.5125,0 z"
           style="font-size:12.5px;font-variant:normal;font-weight:bold;font-stretch:normal;text-align:start;letter-spacing:-0.37362623px;writing-mode:lr-tb;text-anchor:start;font-family:Ubuntu Light;-inkscape-font-specification:'Ubuntu Light, Light'"
           id="path7109" />
        <path
           d="m -4453.4158,-4366.225 -1.5125,0 0,-6.5377 1.5125,0 z m 0.1625,-8.45 c 0,0.2833 -0.092,0.5083 -0.275,0.675 -0.1834,0.1667 -0.4001,0.2501 -0.6501,0.2501 -0.2584,0 -0.4792,-0.083 -0.6626,-0.2501 -0.1833,-0.1667 -0.275,-0.3917 -0.275,-0.675 0,-0.2917 0.092,-0.5209 0.275,-0.6876 0.1834,-0.1667 0.4042,-0.25 0.6626,-0.25 0.25,0 0.4667,0.083 0.6501,0.25 0.1833,0.1667 0.275,0.3959 0.275,0.6876 z"
           style="font-size:12.5px;font-variant:normal;font-weight:bold;font-stretch:normal;text-align:start;letter-spacing:-0.37362623px;writing-mode:lr-tb;text-anchor:start;font-family:Ubuntu Light;-inkscape-font-specification:'Ubuntu Light, Light'"
           id="path7111" />
        <path
           d="m -4451.8722,-4372.5502 c 0.2917,-0.083 0.6709,-0.1622 1.1376,-0.2373 0.4666,-0.075 0.9833,-0.1125 1.5499,-0.1125 0.5333,0 0.9791,0.073 1.3374,0.2188 0.3583,0.1458 0.6438,0.35 0.8564,0.6124 0.2126,0.2625 0.3627,0.5792 0.4502,0.9501 0.087,0.3709 0.1312,0.7771 0.1312,1.2186 l 0,3.6751 -1.5125,0 0,-3.4375 c 0,-0.3499 -0.023,-0.6478 -0.069,-0.8938 -0.046,-0.2459 -0.1209,-0.4459 -0.2251,-0.6 -0.1041,-0.1541 -0.2458,-0.2666 -0.4249,-0.3374 -0.1792,-0.071 -0.398,-0.1063 -0.6563,-0.1063 -0.1915,0 -0.3915,0.013 -0.5999,0.037 -0.2084,0.025 -0.3626,0.046 -0.4625,0.063 l 0,5.275 -1.5126,0 z"
           style="font-size:12.5px;font-variant:normal;font-weight:bold;font-stretch:normal;text-align:start;letter-spacing:-0.37362623px;writing-mode:lr-tb;text-anchor:start;font-family:Ubuntu Light;-inkscape-font-specification:'Ubuntu Light, Light'"
           id="path7113" />
        <path
           d="m -4443.7341,-4369.6625 c 0,0.6417 0.1397,1.1104 0.4189,1.4061 0.2792,0.2958 0.6396,0.4437 1.0811,0.4437 0.2418,0 0.469,-0.033 0.6815,-0.1 0.2125,-0.067 0.3853,-0.1457 0.5186,-0.2372 l 0,-3.3875 c -0.1084,-0.025 -0.2417,-0.048 -0.4,-0.069 -0.1583,-0.021 -0.3583,-0.031 -0.5998,-0.031 -0.5501,0 -0.971,0.1812 -1.2627,0.5438 -0.2917,0.3625 -0.4376,0.8396 -0.4376,1.4314 z m 4.2126,2.7748 c 0,1.0417 -0.2646,1.8042 -0.7938,2.2875 -0.5293,0.4833 -1.3396,0.725 -2.4311,0.725 -0.4001,0 -0.7897,-0.033 -1.1689,-0.1 -0.3791,-0.067 -0.7228,-0.1542 -1.0311,-0.2625 l 0.2747,-1.2875 c 0.2584,0.1084 0.5522,0.1959 0.8814,0.2625 0.3292,0.067 0.6854,0.1 1.0687,0.1 0.6083,0 1.0416,-0.125 1.3,-0.3749 0.2584,-0.25 0.3876,-0.6208 0.3876,-1.1124 l 0,-0.2499 c -0.1501,0.075 -0.348,0.1497 -0.5938,0.2247 -0.2458,0.075 -0.527,0.1126 -0.8436,0.1126 -0.4168,0 -0.7981,-0.067 -1.1438,-0.1999 -0.3458,-0.1333 -0.6416,-0.3291 -0.8875,-0.5875 -0.2459,-0.2584 -0.4376,-0.5813 -0.5751,-0.9687 -0.1374,-0.3875 -0.2062,-0.8354 -0.2062,-1.3438 0,-0.475 0.073,-0.9126 0.2188,-1.3126 0.1459,-0.4 0.3583,-0.7417 0.6374,-1.025 0.2791,-0.2833 0.6187,-0.5041 1.0188,-0.6624 0.4,-0.1583 0.8542,-0.2375 1.3626,-0.2375 0.4916,0 0.9582,0.037 1.3998,0.1125 0.4416,0.075 0.8166,0.1541 1.1251,0.2373 z"
           style="font-size:12.5px;font-variant:normal;font-weight:bold;font-stretch:normal;text-align:start;letter-spacing:-0.37362623px;writing-mode:lr-tb;text-anchor:start;font-family:Ubuntu Light;-inkscape-font-specification:'Ubuntu Light, Light'"
           id="path7115" />
        <path
           d="m -4436.2086,-4372.5624 c 0,0.6915 -0.025,1.3247 -0.075,1.8997 -0.05,0.575 -0.1125,1.1542 -0.1875,1.7376 l -1.075,0 c -0.083,-0.5834 -0.1498,-1.1646 -0.1999,-1.7437 -0.05,-0.5791 -0.075,-1.2103 -0.075,-1.8936 l 0,-2.3251 1.6125,0 z m 0.1877,5.5122 c 0,0.2917 -0.096,0.5293 -0.2874,0.7126 -0.1917,0.1834 -0.4291,0.2751 -0.7124,0.2751 -0.2752,0 -0.5107,-0.092 -0.7065,-0.2751 -0.1958,-0.1833 -0.2938,-0.4209 -0.2938,-0.7126 0,-0.2917 0.098,-0.5312 0.2938,-0.7187 0.1958,-0.1874 0.4313,-0.2811 0.7065,-0.2811 0.2833,0 0.5207,0.094 0.7124,0.2811 0.1916,0.1875 0.2874,0.427 0.2874,0.7187 z"
           style="font-size:12.5px;font-variant:normal;font-weight:bold;font-stretch:normal;text-align:start;letter-spacing:-0.37362623px;writing-mode:lr-tb;text-anchor:start;font-family:Ubuntu Light;-inkscape-font-specification:'Ubuntu Light, Light'"
           id="path7117" />
      </g>
    </g>
  </g>
</svg>
